<?xml version="1.0" standalone="no"?>
<!DOCTYPE svg PUBLIC "-//W3C//DTD SVG 20010904//EN"
 "http://www.w3.org/TR/2001/REC-SVG-20010904/DTD/svg10.dtd">
<svg version="1.0" xmlns="http://www.w3.org/2000/svg"
 width="314.000000pt" height="314.000000pt" viewBox="0 0 314.000000 314.000000"
 preserveAspectRatio="xMidYMid meet">
<metadata>
Created by potrace 1.11, written by Peter Selinger 2001-2013
</metadata>
<g transform="translate(0.000000,314.000000) scale(0.100000,-0.100000)"
fill="#000000" stroke="none">
<path d="M770 3129 c-396 -33 -718 -349 -758 -747 -10 -92 -7 -1592 2 -1667 8
-60 52 -213 65 -228 4 -4 112 97 239 224 l232 232 0 153 c0 119 4 163 17 196
26 69 80 128 142 157 52 24 68 26 211 28 85 1 158 2 161 3 3 0 127 120 274
268 l267 267 -63 2 c-35 2 -228 4 -429 5 l-365 3 -53 30 c-203 112 -197 387
10 497 l43 23 795 2 c882 1 851 3 930 -64 22 -20 51 -54 63 -77 l22 -41 3
-799 c3 -902 7 -855 -74 -945 -132 -147 -373 -106 -457 77 -21 45 -22 60 -23
457 -2 226 -3 417 -3 425 -1 8 -122 -106 -270 -254 l-269 -269 -4 -166 c-3
-144 -6 -172 -24 -211 -29 -61 -78 -108 -144 -138 -50 -24 -65 -25 -212 -26
l-158 -1 -232 -232 -231 -231 39 -17 c21 -9 75 -26 119 -38 79 -21 92 -21 915
-21 459 0 858 4 885 8 294 45 560 271 655 556 45 132 46 171 44 1035 -1 451
-4 830 -7 843 -30 118 -40 149 -66 206 -116 256 -359 436 -638 472 -70 9
-1547 12 -1653 3z"/>
</g>
</svg>
