<?xml version="1.0" standalone="no"?>
<!DOCTYPE svg PUBLIC "-//W3C//DTD SVG 20010904//EN"
 "http://www.w3.org/TR/2001/REC-SVG-20010904/DTD/svg10.dtd">
<svg version="1.0" xmlns="http://www.w3.org/2000/svg"
 width="16.000000pt" height="16.000000pt" viewBox="0 0 16.000000 16.000000"
 preserveAspectRatio="xMidYMid meet">
<metadata>
Created by potrace 1.11, written by Peter Selinger 2001-2013
</metadata>
<g transform="translate(0.000000,16.000000) scale(0.004000,-0.004000)"
fill="#000000" stroke="none">
<path d="M1135 3555 c-281 -51 -516 -237 -625 -493 -67 -157 -64 -112 -67
-1032 -3 -895 -2 -905 48 -1045 12 -33 23 -62 26 -65 2 -2 107 99 233 225
l230 230 0 152 c0 181 15 235 82 301 76 75 110 85 296 86 l162 1 270 270 270
270 -418 0 c-385 0 -421 2 -466 19 -194 74 -243 325 -91 465 88 81 25 76 895
79 520 1 792 -1 827 -8 28 -6 71 -24 94 -40 24 -16 46 -27 50 -24 4 2 10 -5
14 -16 3 -11 10 -20 14 -20 10 0 33 -51 26 -58 -2 -3 1 -12 8 -20 9 -12 12
-193 13 -814 0 -439 -2 -798 -5 -798 -4 0 -7 -14 -7 -31 -1 -17 -6 -34 -10
-38 -5 -3 -10 -12 -12 -19 -5 -28 -102 -115 -142 -127 -74 -22 -87 -23 -190
-14 -8 1 -24 9 -34 18 -12 10 -16 11 -12 3 7 -11 4 -12 -11 -3 -24 12 -119
101 -109 101 4 0 -2 14 -14 30 -12 17 -18 30 -14 30 3 0 1 7 -6 15 -7 8 -10
21 -7 30 4 8 3 16 -1 19 -5 3 -8 181 -8 395 1 215 -2 391 -6 391 -4 0 -120
-114 -259 -253 l-253 -252 -2 -155 c-2 -134 -5 -175 -14 -200 -1 -3 -2 -8 -1
-12 0 -5 -4 -8 -10 -8 -5 0 -7 -5 -4 -10 3 -6 -1 -13 -9 -16 -9 -3 -14 -10
-11 -14 3 -5 -8 -21 -24 -37 -83 -80 -108 -87 -301 -89 l-165 -1 -222 -222
c-123 -122 -223 -227 -223 -233 0 -6 3 -8 6 -5 4 3 16 1 28 -5 11 -7 24 -11
29 -10 4 1 7 -2 7 -6 0 -4 8 -8 18 -9 19 -1 53 -9 92 -20 34 -10 1729 -9 1760
1 14 4 34 9 45 10 19 3 27 5 73 23 9 3 20 7 25 8 4 2 10 4 15 5 4 1 10 2 15 1
4 0 7 4 7 10 0 6 7 8 16 5 10 -4 13 -2 8 6 -5 8 -2 9 9 5 10 -3 17 -3 17 1 0
13 57 42 65 34 5 -4 5 -2 2 4 -6 10 20 29 31 24 2 -1 12 9 23 21 10 12 19 19
19 15 0 -13 140 137 146 156 3 10 10 15 16 12 6 -4 8 -3 5 3 -4 5 2 19 11 29
19 20 22 26 22 45 0 5 4 8 8 5 4 -2 9 5 9 17 1 12 7 23 13 25 5 2 8 7 5 12 -3
5 2 15 10 24 8 8 14 19 13 23 -1 4 3 18 10 29 6 12 9 24 6 27 -3 3 -2 12 2 19
9 13 11 22 21 73 10 51 13 1687 3 1730 -5 22 -12 54 -15 70 -10 48 -10 49 -18
63 -5 6 -6 16 -3 21 4 5 2 11 -4 13 -6 2 -12 14 -15 27 -2 12 -9 29 -16 37 -6
8 -8 14 -5 14 4 0 -4 15 -18 33 -15 19 -26 37 -26 42 0 6 -22 36 -63 85 -6 8
-11 18 -9 23 1 5 -2 6 -7 3 -5 -3 -15 2 -22 11 -12 14 -12 16 0 8 24 -14 1 15
-37 49 -91 80 -207 141 -337 178 -80 23 -81 23 -915 25 -644 1 -851 -2 -905
-12z"/>
</g>
</svg>
